#tb 0: 1/25
0,          0,          0,        1,   302912, d2964d8013869388b92b546f105a7541
0,          1,          1,        1,   302880, a06917f2dd5905034b78d80b4702ade9
0,          2,          2,        1,   302740, b8af48307700460aed09e61ff43297d8
0,          3,          3,        1,   302784, d8bec7604718716daf04814fb889064d
0,          4,          4,        1,   302824, d1f2f9055165254003868dcde305c423
0,          5,          5,        1,   302796, c18722063e9cf19ee8cdcb69266c722a
0,          6,          6,        1,   302796, cf00264e1e5f43890b5be16dc2aa0a75
0,          7,          7,        1,   302860, d9b305b43c36ed06fa347e04daa26772
0,          8,          8,        1,   302892, f69c6b0c027ac5f3d7e9e56609b36559
0,          9,          9,        1,   302896, f81634542eb893a8150edfd91168d91e
0,         10,         10,        1,   302776, 91509d83dc2c9308d9e29ed2b3c49b44
0,         11,         11,        1,   302792, 7109c49d3c65cdc9afd8f0f3917dc36f
0,         12,         12,        1,   302908, db307334fe92965b4500fb7f67ce4ffd
0,         13,         13,        1,   302784, d18a2017145423cd7f5880cb44e34c4b
0,         14,         14,        1,   302668, 1b2362477600ad99fdcca3bc2167be9e
0,         15,         15,        1,   302696, cf38dc4d728a291f6206ee0dc4dec00c
0,         16,         16,        1,   302788, d1d7743274cef21e137d9aa512ca1edc
0,         17,         17,        1,   302840, 89d46fec602e9ebe4cae55961da71f4c
0,         18,         18,        1,   302928, 46e55d9667f21cd14184bad89de32971
0,         19,         19,        1,   302984, 8f25e47871bace8b39a2709f49cef11d
0,         20,         20,        1,   302936, 6dff8cb7bb9fe294fcc79a713a983fb1
0,         21,         21,        1,   302980, 26191c78d0e2901404776791397c4f83
0,         22,         22,        1,   302996, 9f414291a8ea4537ac991675034db64b
0,         23,         23,        1,   302912, d274f2535d109f9b8601f175fcd858cb
0,         24,         24,        1,   302964, 1d70b563670a33267ae2f6644e1c8e95
0,         25,         25,        1,   303028, 9d14b635403c286ca9d60fa700e30888
0,         26,         26,        1,   302988, 8a3a45138a29d38ac70f1fb9f3147c1a
0,         27,         27,        1,   303056, 2378954ac18fb9b01feb937b76c08a55
0,         28,         28,        1,   302996, 675d4b6b235c374da450cf00e240185b
0,         29,         29,        1,   303072, 77a7205787f1e7cca59dd239f6c0591a
0,         30,         30,        1,   303084, 551c987cb8a574f999577a9e630a5df4
0,         31,         31,        1,   303024, 73451fc3927d329fe407def293b5467d
0,         32,         32,        1,   302972, 03c69d8fdebeb8c3ba31e99142e68144
0,         33,         33,        1,   302904, 5949ab8ff47e72933e4668cf46a76d95
0,         34,         34,        1,   302828, a9197dd2e0496fce0e8de9950466dc6e
0,         35,         35,        1,   302972, 9c8c24df0e0196453f7db3182561879a
0,         36,         36,        1,   303052, 849f0f23b6d2e6af74bff2a45b5d8a63
0,         37,         37,        1,   303028, 16acb86039a38dbfac48e2a04a48d9ea
0,         38,         38,        1,   303088, eb5336a28c2b99dd6e4e9f90a5fb5d96
0,         39,         39,        1,   303048, 5a637b3e6b7b3c4b7aa58f4ffd8c5e29
0,         40,         40,        1,   303120, f31ef0195ba9c70c5e6dc84ed4e9928a
0,         41,         41,        1,   303056, 3f73ef08146c697fcec3aa16805aac92
0,         42,         42,        1,   303092, 89e2ac83290eef0f589d67e3adad2d30
0,         43,         43,        1,   303140, cde3a48e309c3ca6a3843d2d5aaade79
0,         44,         44,        1,   303116, 5456c19ccc38237a09986c962350ef60
0,         45,         45,        1,   303156, 419e78d98541dfd1a9d29a04cf985cf9
0,         46,         46,        1,   303148, 9b7a7559370798cfae2ccb1731cd89c0
0,         47,         47,        1,   303196, d9590fdf48bc3be1a4956fb5da3584dd
0,         48,         48,        1,   303256, e6c90aa1753fc7d6b04cfc7e92b53af1
0,         49,         49,        1,   303228, 941f240dc62777aba1792f36b70e1f48
